<?xml version="1.0" encoding="UTF-8" standalone="no"?><!DOCTYPE svg PUBLIC "-//W3C//DTD SVG 1.1//EN" "http://www.w3.org/Graphics/SVG/1.1/DTD/svg11.dtd"><svg width="100%" height="100%" viewBox="0 0 768 768" version="1.1" xmlns="http://www.w3.org/2000/svg" xmlns:xlink="http://www.w3.org/1999/xlink" xml:space="preserve" xmlns:serif="http://www.serif.com/" style="fill-rule:evenodd;clip-rule:evenodd;stroke-linejoin:round;stroke-miterlimit:2;"><path d="M736,384c0,-97.184 -39.424,-185.248 -103.104,-248.896c-63.68,-63.648 -151.712,-103.104 -248.896,-103.104c-97.184,0 -185.248,39.424 -248.896,103.104c-63.648,63.68 -103.104,151.712 -103.104,248.896c0,97.184 39.424,185.248 103.104,248.896c63.68,63.648 151.712,103.104 248.896,103.104c97.184,0 185.248,-39.424 248.896,-103.104c63.648,-63.68 103.104,-151.712 103.104,-248.896Zm-64,0c0,79.552 -32.192,151.488 -84.352,203.648c-52.16,52.16 -124.096,84.352 -203.648,84.352c-79.552,0 -151.488,-32.192 -203.648,-84.352c-52.16,-52.16 -84.352,-124.096 -84.352,-203.648c0,-79.552 32.192,-151.488 84.352,-203.648c52.16,-52.16 124.096,-84.352 203.648,-84.352c79.552,0 151.488,32.192 203.648,84.352c52.16,52.16 84.352,124.096 84.352,203.648Zm-350.944,-85.376c5.856,-16.672 17.888,-29.376 32.704,-36.48c14.816,-7.104 32.224,-8.544 48.896,-2.656c14.656,5.152 26.208,15.04 33.6,27.488c5.856,9.824 9.088,21.28 9.152,33.184c0,4.96 -1.248,9.888 -3.744,14.848c-2.56,5.12 -6.496,10.4 -11.776,15.68c-22.688,22.688 -58.592,34.944 -58.592,34.944c-16.768,5.6 -25.824,23.712 -20.224,40.48c5.6,16.768 23.712,25.824 40.48,20.224c0,0 49.408,-16.192 83.616,-50.4c8.928,-8.928 17.44,-19.648 23.776,-32.32c6.4,-12.8 10.496,-27.456 10.496,-43.808c-0.128,-23.392 -6.528,-45.984 -18.144,-65.568c-14.816,-24.896 -38.08,-44.864 -67.36,-55.168c-33.344,-11.712 -68.32,-8.8 -97.824,5.344c-29.504,14.144 -53.696,39.616 -65.408,72.96c-5.888,16.672 2.88,34.944 19.552,40.8c16.672,5.856 34.944,-2.912 40.8,-19.552Zm62.944,277.376c17.664,0 32,-14.336 32,-32c0,-17.664 -14.336,-32 -32,-32c-17.664,0 -32,14.336 -32,32c0,17.664 14.336,32 32,32Z" style="fill:#fff;fill-rule:nonzero;"/></svg>