<svg width="80" height="80" viewBox="0 0 80 80" fill="none" xmlns="http://www.w3.org/2000/svg">
<g filter="url(#filter0_ii_59_20713)">
<rect width="80" height="80" fill="#5178FF"/>
</g>
<mask id="mask0_59_20713" style="mask-type:alpha" maskUnits="userSpaceOnUse" x="0" y="0" width="80" height="80">
<rect width="80" height="80" fill="#5178FF"/>
</mask>
<g mask="url(#mask0_59_20713)">
<g filter="url(#filter1_f_59_20713)">
<circle cx="90.2034" cy="62.1362" r="42.2966" fill="#5B4FE5"/>
</g>
<g opacity="0.2" filter="url(#filter2_f_59_20713)">
<rect x="0.5" y="0.5" width="79" height="79" stroke="url(#paint0_linear_59_20713)"/>
</g>
<g filter="url(#filter3_f_59_20713)">
<rect x="-1.21875" y="-2.93774" width="82.4381" height="82.4381" stroke="#5178FF"/>
</g>
</g>
<g filter="url(#filter4_dd_59_20713)">
<path fill-rule="evenodd" clip-rule="evenodd" d="M25.6994 28.7501C25.6994 20.3675 32.3168 13.7501 40.6994 13.7501C49.0821 13.7501 55.6994 20.3675 55.6994 28.7501V31.2499H55.6995C58.4534 31.2499 60.6995 33.496 60.6995 36.2499V61.2499C60.6995 64.0038 58.4534 66.2499 55.6995 66.2499H25.6995C22.9456 66.2499 20.6995 64.0038 20.6995 61.2499V36.2499C20.6995 33.496 22.9455 31.25 25.6994 31.2499V28.7501ZM50.6994 28.7501V31.2499H30.6994V28.7501C30.6994 23.1289 35.0782 18.7501 40.6994 18.7501C46.3207 18.7501 50.6994 23.1289 50.6994 28.7501Z" fill="url(#paint1_linear_59_20713)" fill-opacity="0.01" shape-rendering="crispEdges"/>
</g>
<g filter="url(#filter5_ii_59_20713)">
<path fill-rule="evenodd" clip-rule="evenodd" d="M25.6994 28.7501C25.6994 20.3675 32.3168 13.7501 40.6994 13.7501C49.0821 13.7501 55.6994 20.3675 55.6994 28.7501V31.2499H55.6995C58.4534 31.2499 60.6995 33.496 60.6995 36.2499V61.2499C60.6995 64.0038 58.4534 66.2499 55.6995 66.2499H25.6995C22.9456 66.2499 20.6995 64.0038 20.6995 61.2499V36.2499C20.6995 33.496 22.9455 31.25 25.6994 31.2499V28.7501ZM50.6994 28.7501V31.2499H30.6994V28.7501C30.6994 23.1289 35.0782 18.7501 40.6994 18.7501C46.3207 18.7501 50.6994 23.1289 50.6994 28.7501Z" fill="white"/>
</g>
<mask id="mask1_59_20713" style="mask-type:alpha" maskUnits="userSpaceOnUse" x="20" y="13" width="41" height="54">
<path fill-rule="evenodd" clip-rule="evenodd" d="M25.6994 28.7501C25.6994 20.3675 32.3168 13.7501 40.6994 13.7501C49.0821 13.7501 55.6994 20.3675 55.6994 28.7501V31.2499H55.6995C58.4534 31.2499 60.6995 33.496 60.6995 36.2499V61.2499C60.6995 64.0038 58.4534 66.2499 55.6995 66.2499H25.6995C22.9456 66.2499 20.6995 64.0038 20.6995 61.2499V36.2499C20.6995 33.496 22.9455 31.25 25.6994 31.2499V28.7501ZM50.6994 28.7501V31.2499H30.6994V28.7501C30.6994 23.1289 35.0782 18.7501 40.6994 18.7501C46.3207 18.7501 50.6994 23.1289 50.6994 28.7501Z" fill="white"/>
</mask>
<g mask="url(#mask1_59_20713)">
<g filter="url(#filter6_f_59_20713)">
<mask id="path-9-inside-1_59_20713" fill="white">
<path fill-rule="evenodd" clip-rule="evenodd" d="M25.6994 28.7501C25.6994 20.3675 32.3168 13.7501 40.6994 13.7501C49.0821 13.7501 55.6994 20.3675 55.6994 28.7501V31.2499H55.6995C58.4534 31.2499 60.6995 33.496 60.6995 36.2499V61.2499C60.6995 64.0038 58.4534 66.2499 55.6995 66.2499H25.6995C22.9456 66.2499 20.6995 64.0038 20.6995 61.2499V36.2499C20.6995 33.496 22.9455 31.25 25.6994 31.2499V28.7501ZM50.6994 28.7501V31.2499H30.6994V28.7501C30.6994 23.1289 35.0782 18.7501 40.6994 18.7501C46.3207 18.7501 50.6994 23.1289 50.6994 28.7501Z"/>
</mask>
<path d="M55.6994 31.2499H54.6994V32.2499H55.6994V31.2499ZM25.6994 31.2499L25.6994 32.2499L26.6994 32.2499V31.2499H25.6994ZM50.6994 31.2499V32.2499H51.6994V31.2499H50.6994ZM30.6994 31.2499H29.6994V32.2499H30.6994V31.2499ZM40.6994 12.7501C31.7645 12.7501 24.6994 19.8152 24.6994 28.7501H26.6994C26.6994 20.9197 32.869 14.7501 40.6994 14.7501V12.7501ZM56.6994 28.7501C56.6994 19.8152 49.6344 12.7501 40.6994 12.7501V14.7501C48.5298 14.7501 54.6994 20.9197 54.6994 28.7501H56.6994ZM56.6994 31.2499V28.7501H54.6994V31.2499H56.6994ZM55.6995 30.2499H55.6994V32.2499H55.6995V30.2499ZM61.6995 36.2499C61.6995 32.9437 59.0057 30.2499 55.6995 30.2499V32.2499C57.9011 32.2499 59.6995 34.0483 59.6995 36.2499H61.6995ZM61.6995 61.2499V36.2499H59.6995V61.2499H61.6995ZM55.6995 67.2499C59.0057 67.2499 61.6995 64.5561 61.6995 61.2499H59.6995C59.6995 63.4515 57.9011 65.2499 55.6995 65.2499V67.2499ZM25.6995 67.2499H55.6995V65.2499H25.6995V67.2499ZM19.6995 61.2499C19.6995 64.5561 22.3933 67.2499 25.6995 67.2499V65.2499C23.4978 65.2499 21.6995 63.4515 21.6995 61.2499H19.6995ZM19.6995 36.2499V61.2499H21.6995V36.2499H19.6995ZM25.6994 30.2499C22.3932 30.25 19.6995 32.9438 19.6995 36.2499H21.6995C21.6995 34.0483 23.4978 32.2499 25.6994 32.2499L25.6994 30.2499ZM24.6994 28.7501V31.2499H26.6994V28.7501H24.6994ZM51.6994 31.2499V28.7501H49.6994V31.2499H51.6994ZM30.6994 32.2499H50.6994V30.2499H30.6994V32.2499ZM29.6994 28.7501V31.2499H31.6994V28.7501H29.6994ZM40.6994 17.7501C34.5259 17.7501 29.6994 22.5766 29.6994 28.7501H31.6994C31.6994 23.6812 35.6305 19.7501 40.6994 19.7501V17.7501ZM51.6994 28.7501C51.6994 22.5766 46.8729 17.7501 40.6994 17.7501V19.7501C45.7684 19.7501 49.6994 23.6812 49.6994 28.7501H51.6994Z" fill="white" mask="url(#path-9-inside-1_59_20713)"/>
</g>
</g>
<defs>
<filter id="filter0_ii_59_20713" x="0" y="-2" width="80" height="86" filterUnits="userSpaceOnUse" color-interpolation-filters="sRGB">
<feFlood flood-opacity="0" result="BackgroundImageFix"/>
<feBlend mode="normal" in="SourceGraphic" in2="BackgroundImageFix" result="shape"/>
<feColorMatrix in="SourceAlpha" type="matrix" values="0 0 0 0 0 0 0 0 0 0 0 0 0 0 0 0 0 0 127 0" result="hardAlpha"/>
<feOffset dy="4"/>
<feGaussianBlur stdDeviation="2"/>
<feComposite in2="hardAlpha" operator="arithmetic" k2="-1" k3="1"/>
<feColorMatrix type="matrix" values="0 0 0 0 0.491667 0 0 0 0 0.605604 0 0 0 0 1 0 0 0 1 0"/>
<feBlend mode="normal" in2="shape" result="effect1_innerShadow_59_20713"/>
<feColorMatrix in="SourceAlpha" type="matrix" values="0 0 0 0 0 0 0 0 0 0 0 0 0 0 0 0 0 0 127 0" result="hardAlpha"/>
<feOffset dy="-2"/>
<feGaussianBlur stdDeviation="1"/>
<feComposite in2="hardAlpha" operator="arithmetic" k2="-1" k3="1"/>
<feColorMatrix type="matrix" values="0 0 0 0 0.155249 0 0 0 0 0.300696 0 0 0 0 0.804167 0 0 0 1 0"/>
<feBlend mode="normal" in2="effect1_innerShadow_59_20713" result="effect2_innerShadow_59_20713"/>
</filter>
<filter id="filter1_f_59_20713" x="7.90674" y="-20.1604" width="164.593" height="164.593" filterUnits="userSpaceOnUse" color-interpolation-filters="sRGB">
<feFlood flood-opacity="0" result="BackgroundImageFix"/>
<feBlend mode="normal" in="SourceGraphic" in2="BackgroundImageFix" result="shape"/>
<feGaussianBlur stdDeviation="20" result="effect1_foregroundBlur_59_20713"/>
</filter>
<filter id="filter2_f_59_20713" x="-1" y="-1" width="82" height="82" filterUnits="userSpaceOnUse" color-interpolation-filters="sRGB">
<feFlood flood-opacity="0" result="BackgroundImageFix"/>
<feBlend mode="normal" in="SourceGraphic" in2="BackgroundImageFix" result="shape"/>
<feGaussianBlur stdDeviation="0.5" result="effect1_foregroundBlur_59_20713"/>
</filter>
<filter id="filter3_f_59_20713" x="-2.71875" y="-4.43774" width="85.4381" height="85.4382" filterUnits="userSpaceOnUse" color-interpolation-filters="sRGB">
<feFlood flood-opacity="0" result="BackgroundImageFix"/>
<feBlend mode="normal" in="SourceGraphic" in2="BackgroundImageFix" result="shape"/>
<feGaussianBlur stdDeviation="0.5" result="effect1_foregroundBlur_59_20713"/>
</filter>
<filter id="filter4_dd_59_20713" x="16.6995" y="13.2501" width="48" height="60.9999" filterUnits="userSpaceOnUse" color-interpolation-filters="sRGB">
<feFlood flood-opacity="0" result="BackgroundImageFix"/>
<feColorMatrix in="SourceAlpha" type="matrix" values="0 0 0 0 0 0 0 0 0 0 0 0 0 0 0 0 0 0 127 0" result="hardAlpha"/>
<feOffset dy="0.5"/>
<feGaussianBlur stdDeviation="0.5"/>
<feComposite in2="hardAlpha" operator="out"/>
<feColorMatrix type="matrix" values="0 0 0 0 0 0 0 0 0 0 0 0 0 0 0 0 0 0 0.05 0"/>
<feBlend mode="normal" in2="BackgroundImageFix" result="effect1_dropShadow_59_20713"/>
<feColorMatrix in="SourceAlpha" type="matrix" values="0 0 0 0 0 0 0 0 0 0 0 0 0 0 0 0 0 0 127 0" result="hardAlpha"/>
<feOffset dy="4"/>
<feGaussianBlur stdDeviation="2"/>
<feComposite in2="hardAlpha" operator="out"/>
<feColorMatrix type="matrix" values="0 0 0 0 0 0 0 0 0 0 0 0 0 0 0 0 0 0 0.05 0"/>
<feBlend mode="normal" in2="effect1_dropShadow_59_20713" result="effect2_dropShadow_59_20713"/>
<feBlend mode="normal" in="SourceGraphic" in2="effect2_dropShadow_59_20713" result="shape"/>
</filter>
<filter id="filter5_ii_59_20713" x="20.6995" y="10.7501" width="40" height="57.4999" filterUnits="userSpaceOnUse" color-interpolation-filters="sRGB">
<feFlood flood-opacity="0" result="BackgroundImageFix"/>
<feBlend mode="normal" in="SourceGraphic" in2="BackgroundImageFix" result="shape"/>
<feColorMatrix in="SourceAlpha" type="matrix" values="0 0 0 0 0 0 0 0 0 0 0 0 0 0 0 0 0 0 127 0" result="hardAlpha"/>
<feOffset dy="2"/>
<feGaussianBlur stdDeviation="2"/>
<feComposite in2="hardAlpha" operator="arithmetic" k2="-1" k3="1"/>
<feColorMatrix type="matrix" values="0 0 0 0 0.695764 0 0 0 0 0.757418 0 0 0 0 0.970833 0 0 0 1 0"/>
<feBlend mode="normal" in2="shape" result="effect1_innerShadow_59_20713"/>
<feColorMatrix in="SourceAlpha" type="matrix" values="0 0 0 0 0 0 0 0 0 0 0 0 0 0 0 0 0 0 127 0" result="hardAlpha"/>
<feOffset dy="-3"/>
<feGaussianBlur stdDeviation="2"/>
<feComposite in2="hardAlpha" operator="arithmetic" k2="-1" k3="1"/>
<feColorMatrix type="matrix" values="0 0 0 0 0.809722 0 0 0 0 0.852371 0 0 0 0 1 0 0 0 1 0"/>
<feBlend mode="normal" in2="effect1_innerShadow_59_20713" result="effect2_innerShadow_59_20713"/>
</filter>
<filter id="filter6_f_59_20713" x="19.6995" y="12.7501" width="42" height="54.4999" filterUnits="userSpaceOnUse" color-interpolation-filters="sRGB">
<feFlood flood-opacity="0" result="BackgroundImageFix"/>
<feBlend mode="normal" in="SourceGraphic" in2="BackgroundImageFix" result="shape"/>
<feGaussianBlur stdDeviation="0.5" result="effect1_foregroundBlur_59_20713"/>
</filter>
<linearGradient id="paint0_linear_59_20713" x1="40" y1="0" x2="40" y2="80" gradientUnits="userSpaceOnUse">
<stop stop-color="white"/>
<stop offset="1" stop-color="white" stop-opacity="0"/>
</linearGradient>
<linearGradient id="paint1_linear_59_20713" x1="40.6995" y1="13.7501" x2="40.6995" y2="66.2498" gradientUnits="userSpaceOnUse">
<stop stop-color="white" stop-opacity="0.68"/>
<stop offset="1" stop-color="white" stop-opacity="0.74"/>
</linearGradient>
</defs>
</svg>
