<!-- Generated by IcoMoon.io -->
<svg version="1.1" xmlns="http://www.w3.org/2000/svg" width="768" height="768" viewBox="0 0 768 768">
<title></title>
<g id="icomoon-ignore">
</g>
<path d="M160 64c-26.496 0-50.56 10.784-67.872 28.128s-28.128 41.376-28.128 67.872v448c0 26.496 10.784 50.56 28.128 67.872s41.376 28.128 67.872 28.128h448c26.496 0 50.56-10.784 67.872-28.128s28.128-41.376 28.128-67.872v-448c0-26.496-10.784-50.56-28.128-67.872s-41.376-28.128-67.872-28.128zM352 272c0-22.080-8.992-42.112-23.424-56.576s-34.496-23.424-56.576-23.424-42.112 8.992-56.576 23.424-23.424 34.496-23.424 56.576 8.992 42.112 23.424 56.576 34.496 23.424 56.576 23.424 42.112-8.992 56.576-23.424 23.424-34.496 23.424-56.576zM288 272c0 4.416-1.76 8.384-4.672 11.328s-6.912 4.672-11.328 4.672-8.384-1.76-11.328-4.672-4.672-6.912-4.672-11.328 1.76-8.384 4.672-11.328 6.912-4.672 11.328-4.672 8.384 1.76 11.328 4.672 4.672 6.912 4.672 11.328zM237.248 640l274.752-274.752 128 128v114.752c0 8.832-3.552 16.8-9.376 22.624s-13.792 9.376-22.624 9.376zM640 402.752l-105.376-105.376c-12.512-12.512-32.768-12.512-45.248 0l-340.608 340.608c-4.32-1.6-8.16-4.128-11.392-7.36-5.824-5.824-9.376-13.792-9.376-22.624v-448c0-8.832 3.552-16.8 9.376-22.624s13.792-9.376 22.624-9.376h448c8.832 0 16.8 3.552 22.624 9.376s9.376 13.792 9.376 22.624z" style="fill:#fff;fill-rule:nonzero;"></path>
</svg>
