<?xml version="1.0" encoding="UTF-8" standalone="no"?><!DOCTYPE svg PUBLIC "-//W3C//DTD SVG 1.1//EN" "http://www.w3.org/Graphics/SVG/1.1/DTD/svg11.dtd"><svg width="100%" height="100%" viewBox="0 0 768 768" version="1.1" xmlns="http://www.w3.org/2000/svg" xmlns:xlink="http://www.w3.org/1999/xlink" xml:space="preserve" xmlns:serif="http://www.serif.com/" style="fill-rule:evenodd;clip-rule:evenodd;stroke-linejoin:round;stroke-miterlimit:2;"><path d="M384,99.776l248.448,124.224l-248.448,124.224l-248.448,-124.224l248.448,-124.224Zm-14.304,-64.384l-320,160c-15.808,7.904 -22.208,27.104 -14.304,42.912c3.232,6.496 8.352,11.392 14.304,14.304l320,160c9.344,4.672 19.84,4.352 28.608,0l320,-160c15.808,-7.904 22.208,-27.136 14.304,-42.944c-3.232,-6.464 -8.384,-11.36 -14.304,-14.304l-320,-160c-9.344,-4.672 -19.84,-4.352 -28.608,0l-0,0.032Zm-320,537.216l320,160c9.344,4.672 19.84,4.352 28.608,0l320,-160c15.808,-7.904 22.208,-27.136 14.304,-42.944c-7.904,-15.808 -27.136,-22.208 -42.944,-14.304l-305.664,152.864l-305.696,-152.832c-15.808,-7.904 -35.04,-1.504 -42.944,14.304c-7.904,15.808 -1.504,35.04 14.304,42.944l0.032,-0.032Zm-0,-160l320,160c9.344,4.672 19.84,4.352 28.608,0l320,-160c15.808,-7.904 22.208,-27.136 14.304,-42.944c-7.904,-15.808 -27.136,-22.208 -42.944,-14.304l-305.664,152.864l-305.696,-152.832c-15.808,-7.904 -35.04,-1.504 -42.944,14.304c-7.904,15.808 -1.504,35.04 14.304,42.944l0.032,-0.032Z" style="fill:#fff;fill-rule:nonzero;"/></svg>