<svg enable-background="new 0 0 512 512" height="67.759979" viewBox="0 0 98.97699 67.759979" width="98.97699" xmlns="http://www.w3.org/2000/svg" xmlns:xlink="http://www.w3.org/1999/xlink"><linearGradient id="a" gradientUnits="userSpaceOnUse" x1="211.7068" x2="303.33249" y1="340.8287" y2="393.72879"><stop offset="0" stop-color="#ff1c74"/><stop offset="1" stop-color="#a826ff"/></linearGradient><linearGradient id="b" gradientUnits="userSpaceOnUse" x1="205.7195" x2="248.3772" y1="348.63861" y2="348.63861"><stop offset="0" stop-color="#ff1c74"/><stop offset="1" stop-color="#9300b0"/></linearGradient><linearGradient id="c" gradientUnits="userSpaceOnUse" x1="265.47809" x2="304.67151" y1="385.4556" y2="385.4556"><stop offset="0" stop-color="#4c009e"/><stop offset="1" stop-color="#a826ff"/></linearGradient><linearGradient id="d" gradientUnits="userSpaceOnUse" x1="198.65581" x2="242.2242" y1="360.24649" y2="403.81491"><stop offset="0" stop-color="#ffa930"/><stop offset="1" stop-color="#ff1c74"/></linearGradient><linearGradient id="e" gradientUnits="userSpaceOnUse" x1="267.2449" x2="304.67151" y1="345.91879" y2="345.91879"><stop offset="0" stop-color="#3700ff"/><stop offset="1" stop-color="#1ca9fb"/></linearGradient><g clip-rule="evenodd" fill-rule="evenodd" transform="translate(-205.69501 -333.02802)"><path d="m259.229 391.501c-6.112-5.781-10.089-13.801-10.582-22.708-.026-.472-.034-.948-.042-1.423-.007-.431-.015-.862-.037-1.304-.031-.615-.095-1.221-.191-1.816-1.353-16.929-15.102-30.363-32.167-31.222h15.073c9.161 0 17.504 3.686 23.618 9.647 6.13 5.977 10.021 14.243 10.25 23.376.005.222.008.445.01.667.004.402.008.8.034 1.22.054.874.177 1.731.363 2.564-.028-.126-.055-.252-.08-.38 1.68 17.19 16.156 30.628 33.778 30.665v.001h-16.786c-8.974 0-17.163-3.537-23.241-9.287zm-11.359-29.441c-.036-.117-.073-.234-.111-.35.038.116.075.233.111.35zm-1.207-2.916c-.053-.1-.107-.199-.163-.298.056.099.11.198.163.298zm19.197 12.51c.036.119.073.238.111.356-.039-.118-.076-.236-.111-.356z" fill="url(#a)"/><path d="m248.377 364.25c-.593-3.682-2.393-6.955-5.004-9.402-2.984-2.797-7.028-4.515-11.541-4.534-.024.008-.049.013-.075.013h-8.948l-.021.001h-16.833-.006c-.127 0-.23-.103-.23-.23v-16.833-.006c0-.127.103-.23.23-.23h10.261c17.065.857 30.814 14.291 32.167 31.221z" fill="url(#b)"/><path d="m265.478 370.123c.68 3.43 2.428 6.489 4.877 8.814 2.939 2.788 6.89 4.519 11.224 4.565l.019-.001c.022 0 .044.003.065.009h22.772.006c.127 0 .23.103.23.23v16.812.006c0 .127-.103.23-.23.23h-5.185v-.001c-17.622-.036-32.098-13.475-33.778-30.664z" fill="url(#c)"/><path d="m223.085 383.499h8.666.006c.014 0 .028.001.042.004 3.117-.007 6.001-.802 8.475-2.223 2.542-1.461 4.655-3.584 6.145-6.193.03-.057.084-.101.152-.116.123-.028.247.049.275.173.677 2.914 1.706 5.705 3.047 8.324 1.357 2.651 3.035 5.129 4.992 7.38.082.091.078.232-.011.318-3.115 3.031-6.807 5.472-10.889 7.137-.718.293-1.449.562-2.19.806l-.192.062-.005.002-.005.002-.005.001-.005.002-.005.001-.005.002-.005.001-.005.002-.005.002-.005.001-.005.002-.005.002-.005.002-.005.001-.005.002-.005.002-.005.001-.005.001-.005.002-.005.002-.005.002-.005.002-.005.002-.005.001-.004.001h-.001l-.005.002-.005.001-.005.002-.005.002-.005.002-.005.002-.005.001-.005.002-.005.002-.005.002-.005.001-.005.001-.005.002-.005.001-.005.002-.005.002-.005.001-.005.002-.005.001-.005.002-.005.001-.005.001-.005.002-.005.001-.005.002-.005.002-.005.002-.005.001-.005.001-.005.002c-1.022.321-2.064.593-3.124.815l-.006.001-.006.001-.005.001-.006.001-.005.001-.006.001-.006.001-.022.005-.005.001-.011.002-.005.001-.006.001-.005.001-.006.001-.006.001-.005.001-.005.001-.005.001-.006.001-.005.001-.006.001-.006.001-.005.001-.006.001-.006.001-.005.001-.006.001-.005.001-.005.001-.005.001-.006.001-.006.001-.006.001-.006.001-.005.001-.011.002-.006.001-.003.001-.002.001-.017.003-.005.001-.006.001-.005.001-.006.001-.005.001-.006.001-.006.001-.005.001-.006.001-.006.001-.005.001-.006.001-.005.001-.006.001-.005.001-.006.001-.006.001-.006.001c-2.129.426-4.327.646-6.578.646h-25.328-.006c-.127 0-.23-.103-.23-.23v-6.369c-.007-.022-.011-.045-.011-.069v-40.825-.006c0-.127.103-.23.23-.23h16.833.006c.127 0 .23.103.23.23v30.21h.091zm17.147 15.773c-.264.012-.529.016-.796.013.267.003.532-.001.796-.013z" fill="url(#d)"/><path d="m282.47 333.028h12.119c-14.237.78-25.752 11.776-27.344 25.782-.016.009-.034.015-.052.019-.124.029-.247-.048-.276-.172-.678-2.909-1.708-5.702-3.052-8.325-1.356-2.645-3.033-5.121-4.993-7.372h.001c-.08-.091-.075-.23.013-.315 3.171-3.085 6.866-5.492 10.874-7.127 3.994-1.628 8.3-2.49 12.71-2.49z" fill="#1fa0f9"/><path d="m294.589 333.028h9.847.006c.127 0 .23.103.23.23v16.819.006c0 .127-.103.23-.23.23h-22.445v-.001l-1.947.088c-2.586.257-5.205 1.233-7.465 2.711-2.218 1.451-4.088 3.385-5.24 5.599-.022.042-.056.077-.1.099 1.592-14.006 13.107-25.001 27.344-25.781z" fill="url(#e)"/></g></svg>