<?xml version="1.0" encoding="UTF-8" standalone="no"?><!DOCTYPE svg PUBLIC "-//W3C//DTD SVG 1.1//EN" "http://www.w3.org/Graphics/SVG/1.1/DTD/svg11.dtd"><svg width="100%" height="100%" viewBox="0 0 874 622" version="1.1" xmlns="http://www.w3.org/2000/svg" xmlns:xlink="http://www.w3.org/1999/xlink" xml:space="preserve" xmlns:serif="http://www.serif.com/" style="fill-rule:evenodd;clip-rule:evenodd;stroke-linejoin:round;stroke-miterlimit:2;"><rect id="Artboard1" x="0" y="0" width="873.255" height="621.111" style="fill:none;"/><clipPath id="_clip1"><rect x="0" y="0" width="873.255" height="621.111"/></clipPath><g clip-path="url(#_clip1)"><g><path d="M515.473,216.972c165.962,-64.334 309.643,-93.504 320.654,-65.098c11.011,28.405 -114.789,103.699 -280.752,168.033c-165.963,64.335 -309.643,93.505 -320.654,65.099c-11.012,-28.405 114.789,-103.699 280.752,-168.034Z" style="fill:#18d5ff;"/></g><g><path d="M437.349,76.1c106.939,-41.454 207.918,-38.583 225.358,6.407c17.441,44.991 -55.22,115.172 -162.158,156.626c-106.939,41.455 -207.918,38.584 -225.358,-6.407c-17.441,-44.99 55.22,-115.172 162.158,-156.626Z" style="fill:#18d5ff;"/></g><g><path d="M803.897,481.919c-8.937,-10.841 -17.7,-26.14 -30.277,-33.922c-25.079,-39.401 -33.036,-94.283 -34.292,-119.45c-2.218,-44.491 -3.439,-84.711 10.763,-126.095c13.25,-38.612 27.562,-61.313 61.047,-88.159c25.758,-20.647 -368.121,-474.194 -340.833,-492.738c20.945,-14.234 281.74,76.373 304.774,63.561c139.268,-77.46 360.946,-60.502 525.973,-12.054c81.59,23.949 341.471,373.529 422.833,401.449c56.55,19.401 113.681,27.084 170.785,45.769c150.576,49.263 237.85,159.481 193.664,288.237c-20.742,60.45 -58.308,69.843 -125.886,80.171c-65.592,10.023 -131.156,21.219 -194.217,37.47c-100.559,25.912 -9,290.494 -114.555,304.331c-27.434,2.846 417.695,650.789 76.824,314.95c146.019,335.448 -565.791,-517.854 -617.417,-519.982c-36.352,-1.498 -67.774,-13.628 -102.446,-25.529c-43.661,-14.978 -99.807,-26.781 -136.726,-54.048c-26.24,-19.382 -50.058,-39.752 -70.014,-63.961Z" style="fill:#1150ff;fill-rule:nonzero;"/><g><path d="M654.756,-33.212c264.313,24.923 474.433,92.548 468.929,150.919c-5.504,58.371 -224.561,85.526 -488.874,60.602c-264.313,-24.923 -474.433,-92.548 -468.929,-150.919c5.504,-58.371 224.561,-85.526 488.874,-60.602Z" style="fill:#b050ff;"/></g></g></g></svg>