<?xml version="1.0" encoding="UTF-8" standalone="no"?>
<!DOCTYPE svg PUBLIC "-//W3C//DTD SVG 1.1//EN" "http://www.w3.org/Graphics/SVG/1.1/DTD/svg11.dtd">
<svg width="100%" height="100%" viewBox="0 0 874 622" version="1.1" xmlns="http://www.w3.org/2000/svg" xmlns:xlink="http://www.w3.org/1999/xlink" xml:space="preserve" xmlns:serif="http://www.serif.com/" style="fill-rule:evenodd;clip-rule:evenodd;stroke-linejoin:round;stroke-miterlimit:2;">
    <g id="Artboard1" transform="matrix(1,0,0,1,-66.7447,-2.30926e-14)">
        <rect x="66.745" y="0" width="873.255" height="621.111" style="fill:none;"/>
        <clipPath id="_clip1">
            <rect x="66.745" y="0" width="873.255" height="621.111"/>
        </clipPath>
        <g clip-path="url(#_clip1)">
            <g transform="matrix(0.932396,-0.361439,0.187811,0.48449,-32.5694,302.515)">
                <ellipse cx="604.143" cy="380.371" rx="322.506" ry="106.23" style="fill:rgb(24,213,255);"/>
            </g>
            <g transform="matrix(0.932396,-0.361439,0.648909,1.67397,-407.227,-63.2122)">
                <ellipse cx="799.359" cy="304.514" rx="207.807" ry="48.697" style="fill:rgb(24,213,255);"/>
            </g>
            <g transform="matrix(0.989856,-0.142071,0.142071,0.989856,-177.705,59.5986)">
                <path d="M977.713,566.977C970.407,554.976 963.906,538.587 952.562,529.097C933.336,486.533 933.256,431.077 935.589,405.987C939.714,361.632 944.22,321.647 964.157,282.7C982.758,246.362 1000.15,225.925 1037.11,204.108C1065.54,187.33 740.092,-317.575 769.738,-332.054C792.493,-343.168 1037.77,-216.429 1062.39,-225.838C1211.25,-282.726 1428.27,-234.446 1584.74,-163.044C1662.1,-127.747 1869.68,255.209 1946.25,294.405C1999.47,321.643 2054.93,337.365 2108.8,363.974C2250.85,434.129 2321.58,555.629 2259.55,676.801C2230.43,733.691 2191.91,737.652 2123.55,738.274C2057.2,738.877 1990.71,740.644 1925.98,747.771C1822.76,759.134 1875.8,1034.04 1769.35,1032.74C1741.79,1031.66 2090.35,1736.27 1800.65,1355.41C1897.53,1708.2 1314.17,762.426 1263.37,752.985C1227.6,746.338 1198.22,729.867 1165.59,713.16C1124.5,692.131 1070.6,672.471 1037.93,640.236C1014.71,617.323 994.027,593.775 977.713,566.977Z" style="fill:rgb(186,245,255);fill-rule:nonzero;"/>
                <g transform="matrix(0.972147,0.234371,-0.234371,0.972147,-14.8117,-264.342)">
                    <ellipse cx="962.875" cy="182.92" rx="481.026" ry="106.23" style="fill:url(#_Linear2);"/>
                </g>
            </g>
        </g>
    </g>
    <defs>
        <linearGradient id="_Linear2" x1="0" y1="0" x2="1" y2="0" gradientUnits="userSpaceOnUse" gradientTransform="matrix(871.436,24.5969,-24.5969,871.436,481.955,185.17)"><stop offset="0" style="stop-color:rgb(255,98,80);stop-opacity:1"/><stop offset="0.45" style="stop-color:rgb(255,121,105);stop-opacity:1"/><stop offset="1" style="stop-color:rgb(255,176,167);stop-opacity:1"/></linearGradient>
    </defs>
</svg>
