<svg clip-rule="evenodd" fill-rule="evenodd" stroke-linejoin="round" stroke-miterlimit="2" viewBox="0 0 1375 802" xmlns="http://www.w3.org/2000/svg" xmlns:xlink="http://www.w3.org/1999/xlink"><clipPath id="a"><path clip-rule="evenodd" d="m0 0h1375v801.165h-1375z"/></clipPath><path d="m0 0h1375v801.165h-1375z" fill="none"/><g clip-path="url(#a)"><g fill-rule="nonzero" transform="matrix(.985944 0 0 .985944 -142.616 -346.173)"><path d="m1352.12 572.824c18.19 53.031-332.67 221.442-783.665 376.156-450.998 154.71-404.796 253.28-422.989 200.24-18.192-53.03 269.073-337.824 720.071-492.538 450.993-154.714 468.393-136.889 486.583-83.858z" fill="#4b19dd"/><path d="m1369.85 571.528c211.82-122.721 171.55-157.138 155.46-184.908 50.8-89.991-219.66 5.183-431.48 127.904-202.269 141.269-490.993 314.582-638.107 413.4 66.105-64.039 690.897-284.386 914.127-356.396z" fill="#62ffff"/></g></g></svg>