<svg clip-rule="evenodd" fill-rule="evenodd" stroke-linejoin="round" stroke-miterlimit="2" viewBox="0 0 874 622" xmlns="http://www.w3.org/2000/svg" xmlns:xlink="http://www.w3.org/1999/xlink"><clipPath id="a"><path clip-rule="evenodd" d="m0 0h873.255v621.111h-873.255z"/></clipPath><path d="m0 0h873.255v621.111h-873.255z" fill="none"/><g clip-path="url(#a)"><path d="m515.473 216.972c165.962-64.334 309.643-93.504 320.654-65.098 11.011 28.405-114.789 103.699-280.752 168.033-165.963 64.335-309.643 93.505-320.654 65.099-11.012-28.405 114.789-103.699 280.752-168.034z" fill="#18d5ff"/><path d="m437.349 76.1c106.939-41.454 207.918-38.583 225.358 6.407 17.441 44.991-55.22 115.172-162.158 156.626-106.939 41.455-207.918 38.584-225.358-6.407-17.441-44.99 55.22-115.172 162.158-156.626z" fill="#18d5ff"/><path d="m803.897 481.919c-8.937-10.841-17.7-26.14-30.277-33.922-25.079-39.401-33.036-94.283-34.292-119.45-2.218-44.491-3.439-84.711 10.763-126.095 13.25-38.612 27.562-61.313 61.047-88.159 25.758-20.647-368.121-474.194-340.833-492.738 20.945-14.234 281.74 76.373 304.774 63.561 139.268-77.46 360.946-60.502 525.973-12.054 81.59 23.949 341.471 373.529 422.833 401.449 56.55 19.401 113.681 27.084 170.785 45.769 150.576 49.263 237.85 159.481 193.664 288.237-20.742 60.45-58.308 69.843-125.886 80.171-65.592 10.023-131.156 21.219-194.217 37.47-100.559 25.912-9 290.494-114.555 304.331-27.434 2.846 417.695 650.789 76.824 314.95 146.019 335.448-565.791-517.854-617.417-519.982-36.352-1.498-67.774-13.628-102.446-25.529-43.661-14.978-99.807-26.781-136.726-54.048-26.24-19.382-50.058-39.752-70.014-63.961z" fill="#1150ff" fill-rule="nonzero"/><path d="m654.756-33.212c264.313 24.923 474.433 92.548 468.929 150.919s-224.561 85.526-488.874 60.602c-264.313-24.923-474.433-92.548-468.929-150.919s224.561-85.526 488.874-60.602z" fill="#b050ff"/></g></svg>