<svg clip-rule="evenodd" fill-rule="evenodd" stroke-linejoin="round" stroke-miterlimit="2" viewBox="0 0 1920 1080" xmlns="http://www.w3.org/2000/svg" xmlns:xlink="http://www.w3.org/1999/xlink"><linearGradient id="a" gradientTransform="matrix(-214.757 226.653 -226.653 -214.757 626.595 791.737)" gradientUnits="userSpaceOnUse" x1="0" x2="1" y1="0" y2="0"><stop offset="0" stop-color="#3b0015"/><stop offset="1" stop-color="#ff364e"/></linearGradient><ellipse cx="1082.31" cy="794.051" fill="#00d1ff" opacity=".7" rx="205.5" ry="98.5" transform="matrix(.930208 -.367034 .367034 .930208 -215.907 452.663)"/><ellipse cx="631.52" cy="728.129" fill="#000b69" opacity=".7" rx="516.68" ry="189.88" transform="matrix(.988406 -.151836 .151836 .988406 -103.234 104.33)"/><ellipse cx="986.52" cy="651.129" fill="#5200ff" opacity=".7" rx="516.68" ry="189.88" transform="matrix(.988406 -.151836 .151836 .988406 -87.4269 157.339)"/><ellipse cx="1236.42" cy="245.582" fill="#00095b" opacity=".7" rx="280.88" ry="169.904" transform="matrix(.988406 -.151836 .151836 .988406 -22.9528 190.581)"/><path d="m1272.42 685.311c-320.655 144.166-636.555 207.166-630.867 219.817s346.962-6.386 667.617-150.552c316.12-142.127 692.61-375.254 538.6-362.704-115.2 9.388-266.26 177.978-575.35 293.439z" fill="#62ffff" fill-rule="nonzero" transform="translate(25.8702 -51.7991)"/><ellipse cx="626.595" cy="838.593" fill="url(#a)" rx="575.667" ry="46.856" transform="matrix(-.972096 .234582 -.234582 -.972096 1432.42 1506.8)"/><ellipse cx="1200.27" cy="667.433" fill="#fff" rx="98.017" ry="94.439" transform="matrix(.845813 0 0 .845452 200.18 138.495)"/></svg>