<svg clip-rule="evenodd" fill-rule="evenodd" stroke-linejoin="round" stroke-miterlimit="2" viewBox="0 0 1905 580" xmlns="http://www.w3.org/2000/svg"><g transform="matrix(1 0 0 .567819 1.827 -704.94)"><path d="m-1.827 1241.49h1904.98v1019.72h-1904.98z" fill="none"/><ellipse cx="991.002" cy="1785.83" fill="#0021de" rx="905.959" ry="152.329" transform="matrix(1 0 0 1.76112 -23.1803 -1176.27)"/><ellipse cx="991.002" cy="1785.83" fill="#ff007f" rx="905.959" ry="152.329" transform="matrix(.358341 0 0 1.76112 14.2299 -1606.84)"/><path d="m1128.32 1603.61c659.9 112.97 768.64 246.27 768.64 330.34s-375.86-158.77-1305.715-249.8c-482.338-47.22-1129.503 14.36-1129.503-69.71 0-84.08 1396.961-56.99 1666.578-10.83z" fill="#00ffd4" transform="matrix(.358341 0 0 1.76112 1223.39 -1467.8)"/></g></svg>