<?xml version="1.0" encoding="UTF-8" standalone="no"?>
<!DOCTYPE svg PUBLIC "-//W3C//DTD SVG 1.1//EN" "http://www.w3.org/Graphics/SVG/1.1/DTD/svg11.dtd">
<svg width="100%" height="100%" viewBox="0 0 1905 580" version="1.1" xmlns="http://www.w3.org/2000/svg" xmlns:xlink="http://www.w3.org/1999/xlink" xml:space="preserve" xmlns:serif="http://www.serif.com/" style="fill-rule:evenodd;clip-rule:evenodd;stroke-linejoin:round;stroke-miterlimit:2;">
    <g transform="matrix(1,0,0,0.567819,1.827,-704.94)">
        <g id="Artboard2">
            <rect x="-1.827" y="1241.49" width="1904.98" height="1019.72" style="fill:none;"/>
            <g transform="matrix(1,0,0,1.76112,-23.1803,-1176.27)">
                <ellipse cx="991.002" cy="1785.83" rx="905.959" ry="152.329" style="fill:rgb(0,33,222);"/>
            </g>
            <g transform="matrix(0.358341,0,0,1.76112,14.2299,-1606.84)">
                <ellipse cx="991.002" cy="1785.83" rx="905.959" ry="152.329" style="fill:rgb(145,48,255);"/>
            </g>
            <g transform="matrix(0.358341,0,0,1.76112,1223.39,-1467.8)">
                <path d="M1128.32,1603.61C1788.22,1716.58 1896.96,1849.88 1896.96,1933.95C1896.96,2018.02 1521.1,1775.18 591.245,1684.15C108.907,1636.93 -538.258,1698.51 -538.258,1614.44C-538.258,1530.36 858.703,1557.45 1128.32,1603.61Z" style="fill:rgb(0,255,212);"/>
            </g>
        </g>
    </g>
</svg>
