<svg clip-rule="evenodd" fill-rule="evenodd" stroke-linejoin="round" stroke-miterlimit="2" viewBox="0 0 355 183" xmlns="http://www.w3.org/2000/svg" xmlns:xlink="http://www.w3.org/1999/xlink"><linearGradient id="a" gradientTransform="matrix(341.429 -78.7049 78.7049 341.429 13.092 148.987)" gradientUnits="userSpaceOnUse" x1="0" x2="1" y1="0" y2="0"><stop offset="0" stop-color="#00ffd4"/><stop offset=".53" stop-color="#0ffbde"/><stop offset="1" stop-color="#43efff"/></linearGradient><clipPath id="b"><path clip-rule="evenodd" d="m0 0h354.709v182.876h-354.709z"/></clipPath><path d="m0 0h354.709v182.876h-354.709z" fill="none"/><g clip-path="url(#b)"><path d="m342.434 64.108c-10.249-14.713-52.868-34.622-64.461-20.178-13.566 16.903 1.965 34.548-29.349 39.036-4.084.585-34.227 20.872-49.99 17.547-24.557-5.18-54.159-6.656-78.598-.125-22.296 5.959-26.45 31.279-49.287 35.278-27.049 4.736-26.977-4.34-47.225-13.277-2.986-1.319-12.449-2.966-11.001 3.386 1.855 8.136 15.338 11.872 21.646 15.308 24.015 13.08 61.289 25.458 86.497 8.07 10.54-7.27 7.711-20.291 5.162-30.945-1.852-7.738-3.484-16.411 6.699-18.358 14.904-2.85 29.904 9.687 41.701 16.771 20.637 12.394 46.066 20.911 69.95 23.51 8.005.871 19.92 2.802 27.404-1.256 15.148-8.214 35.394-58.124 38.613-56.297 12.589 7.148 48.311 27.24 45.947-3.487-.26-3.37-1.141-6.68-2.191-9.881-1.838-5.6-4.573-10.644-7.858-15.514" fill="url(#a)"/><g fill="#0041d4"><path d="m71.795 90.458c-18.089-1.966-31.765 16.891-20.978 32.161 15.334 21.708 71.877 18.744 78.155-10.59 5.33-24.907-23.148-42.427-45.601-37.258-12.058 2.776-22.59 15.424-27.012 26.512"/><path d="m292.601 123.419c-9.741.209-13.23 14.994-11.251 22.583 4.469 17.143 29.878 20.351 40.778 8.377 17.859-19.619-18.416-43.814-33.987-25.698"/><path d="m332.8 28.782c-6.502.162-8.831 11.589-7.51 17.455 2.983 13.251 19.945 15.73 27.221 6.475 11.922-15.164-12.293-33.865-22.688-19.863"/><path d="m183.657 127.814c-9.741.209-13.23 14.994-11.251 22.583 4.469 17.143 29.878 20.351 40.778 8.377 17.859-19.619-18.416-43.814-33.987-25.698"/></g></g></svg>