<?xml version="1.0" encoding="UTF-8" standalone="no"?><!DOCTYPE svg PUBLIC "-//W3C//DTD SVG 1.1//EN" "http://www.w3.org/Graphics/SVG/1.1/DTD/svg11.dtd"><svg width="100%" height="100%" viewBox="0 0 355 183" version="1.1" xmlns="http://www.w3.org/2000/svg" xmlns:xlink="http://www.w3.org/1999/xlink" xml:space="preserve" xmlns:serif="http://www.serif.com/" style="fill-rule:evenodd;clip-rule:evenodd;stroke-linejoin:round;stroke-miterlimit:2;"><rect id="Artboard5" x="0" y="0" width="354.709" height="182.876" style="fill:none;"/><clipPath id="_clip1"><rect x="0" y="0" width="354.709" height="182.876"/></clipPath><g clip-path="url(#_clip1)"><path d="M342.434,64.108c-10.249,-14.713 -47.783,-15.91 -59.375,-1.467c-13.567,16.903 6.286,44.697 -25.028,49.185c-4.084,0.585 -8.11,0.552 -12.212,0.143c-16.088,-1.606 -31.422,-8.131 -47.185,-11.456c-24.557,-5.18 -54.159,-6.656 -78.598,-0.125c-22.296,5.959 -26.45,31.279 -49.287,35.278c-27.049,4.736 -26.977,-4.34 -47.225,-13.277c-2.986,-1.319 -12.449,-2.966 -11.001,3.386c1.855,8.136 15.338,11.872 21.646,15.308c24.015,13.08 61.289,25.458 86.497,8.07c10.54,-7.27 7.711,-20.291 5.162,-30.945c-1.852,-7.738 -3.484,-16.411 6.699,-18.358c14.904,-2.85 29.904,9.687 41.701,16.771c20.637,12.394 46.066,20.911 69.95,23.51c8.005,0.871 19.92,2.802 27.404,-1.256c15.148,-8.214 -5.139,-39.324 -8.453,-50.61c-1.557,-5.303 -3.652,-12.583 1.928,-16.273c5.988,-3.96 14.086,-2.55 20.531,-0.672c5.142,1.499 10.046,3.618 14.833,6.001c3.315,1.65 6.555,3.43 9.774,5.257c12.589,7.148 48.311,27.24 45.947,-3.487c-0.26,-3.37 -1.141,-6.68 -2.191,-9.881c-1.838,-5.6 -4.573,-10.644 -7.858,-15.514" style="fill:url(#_Linear2);"/><path d="M71.795,90.458c-18.089,-1.966 -31.765,16.891 -20.978,32.161c15.334,21.708 71.877,18.744 78.155,-10.59c5.33,-24.907 -23.148,-42.427 -45.601,-37.258c-12.058,2.776 -22.59,15.424 -27.012,26.512" style="fill:#0041d4;"/><path d="M292.601,123.419c-9.741,0.209 -13.23,14.994 -11.251,22.583c4.469,17.143 29.878,20.351 40.778,8.377c17.859,-19.619 -18.416,-43.814 -33.987,-25.698" style="fill:#258cd4;"/></g><defs><linearGradient id="_Linear2" x1="0" y1="0" x2="1" y2="0" gradientUnits="userSpaceOnUse" gradientTransform="matrix(341.429,-78.7049,78.7049,341.429,13.092,148.987)"><stop offset="0" style="stop-color:#00ffd4;stop-opacity:1"/><stop offset="0.53" style="stop-color:#0ffbde;stop-opacity:1"/><stop offset="1" style="stop-color:#43efff;stop-opacity:1"/></linearGradient></defs></svg>