<!-- Generated by IcoMoon.io -->
<svg version="1.1" xmlns="http://www.w3.org/2000/svg" width="768" height="768" viewBox="0 0 768 768">
<title></title>
<g id="icomoon-ignore">
</g>
<path d="M672 128v416h-192c-23.296 0-45.184 6.24-64 17.12v-337.12c0-26.528 10.72-50.464 28.128-67.872s41.344-28.128 67.872-28.128zM352 561.12c-18.816-10.88-40.704-17.12-64-17.12h-192v-416h160c26.528 0 50.464 10.72 67.872 28.128s28.128 41.344 28.128 67.872zM704 64h-192c-44.16 0-84.224 17.952-113.152 46.848-5.344 5.344-10.304 11.072-14.848 17.152-4.544-6.080-9.504-11.808-14.848-17.152-28.928-28.896-68.992-46.848-113.152-46.848h-192c-17.664 0-32 14.336-32 32v480c0 17.664 14.336 32 32 32h224c17.696 0 33.632 7.136 45.248 18.752s18.752 27.552 18.752 45.248c0 17.664 14.336 32 32 32s32-14.336 32-32c0-17.696 7.136-33.632 18.752-45.248s27.552-18.752 45.248-18.752h224c17.664 0 32-14.336 32-32v-480c0-17.664-14.336-32-32-32z" style="fill:#fff;fill-rule:nonzero;"></path>
</svg>
