<svg fill="none" height="1080" viewBox="0 0 1375 1080" width="1375" xmlns="http://www.w3.org/2000/svg" xmlns:xlink="http://www.w3.org/1999/xlink"><filter id="a" color-interpolation-filters="sRGB" filterUnits="userSpaceOnUse" height="917.891" width="1497.15" x=".149994" y="390.306"><feFlood flood-opacity="0" result="BackgroundImageFix"/><feBlend in="SourceGraphic" in2="BackgroundImageFix" mode="normal" result="shape"/><feGaussianBlur result="effect1_foregroundBlur_3_817" stdDeviation="72.25"/></filter><filter id="b" color-interpolation-filters="sRGB" filterUnits="userSpaceOnUse" height="836.815" width="1343.53" x="325.723" y="221.109"><feFlood flood-opacity="0" result="BackgroundImageFix"/><feBlend in="SourceGraphic" in2="BackgroundImageFix" mode="normal" result="shape"/><feGaussianBlur result="effect1_foregroundBlur_3_817" stdDeviation="65"/></filter><g filter="url(#a)"><path d="m1352.12 572.824c18.19 53.031-332.67 221.442-783.665 376.156-450.998 154.71-404.796 253.28-422.989 200.24-18.192-53.03 269.073-337.824 720.071-492.538 450.993-154.714 468.393-136.889 486.583-83.858z" fill="#4b19dd"/></g><g filter="url(#b)"><path d="m1369.85 571.528c211.82-122.721 171.55-157.138 155.46-184.908 50.8-89.991-219.66 5.183-431.48 127.904-202.269 141.269-490.993 314.582-638.107 413.4 66.105-64.039 690.897-284.386 914.127-356.396z" fill="#62ffff"/></g></svg>