<svg fill="none" height="1080" viewBox="0 0 1920 1080" width="1920" xmlns="http://www.w3.org/2000/svg" xmlns:xlink="http://www.w3.org/1999/xlink"><filter id="a" color-interpolation-filters="sRGB" filterUnits="userSpaceOnUse" height="637.361" width="789.163" x="687.729" y="475.371"><feFlood flood-opacity="0" result="BackgroundImageFix"/><feBlend in="SourceGraphic" in2="BackgroundImageFix" mode="normal" result="shape"/><feGaussianBlur result="effect1_foregroundBlur_2036_5" stdDeviation="100"/></filter><filter id="b" color-interpolation-filters="sRGB" filterUnits="userSpaceOnUse" height="806.936" width="1423.03" x="-79.997" y="324.661"><feFlood flood-opacity="0" result="BackgroundImageFix"/><feBlend in="SourceGraphic" in2="BackgroundImageFix" mode="normal" result="shape"/><feGaussianBlur result="effect1_foregroundBlur_2036_5" stdDeviation="100"/></filter><filter id="c" color-interpolation-filters="sRGB" filterUnits="userSpaceOnUse" height="806.936" width="1423.03" x="275.003" y="247.661"><feFlood flood-opacity="0" result="BackgroundImageFix"/><feBlend in="SourceGraphic" in2="BackgroundImageFix" mode="normal" result="shape"/><feGaussianBlur result="effect1_foregroundBlur_2036_5" stdDeviation="100"/></filter><filter id="d" color-interpolation-filters="sRGB" filterUnits="userSpaceOnUse" height="746.612" width="957.676" x="757.583" y="-127.725"><feFlood flood-opacity="0" result="BackgroundImageFix"/><feBlend in="SourceGraphic" in2="BackgroundImageFix" mode="normal" result="shape"/><feGaussianBlur result="effect1_foregroundBlur_2036_5" stdDeviation="100"/></filter><filter id="e" color-interpolation-filters="sRGB" filterUnits="userSpaceOnUse" height="774.502" width="1479.11" x="511.46" y="261.873"><feFlood flood-opacity="0" result="BackgroundImageFix"/><feBlend in="SourceGraphic" in2="BackgroundImageFix" mode="normal" result="shape"/><feGaussianBlur result="effect1_foregroundBlur_2036_5" stdDeviation="65"/></filter><filter id="f" color-interpolation-filters="sRGB" filterUnits="userSpaceOnUse" height="605.115" width="1439.43" x="-93.1184" y="536.036"><feFlood flood-opacity="0" result="BackgroundImageFix"/><feBlend in="SourceGraphic" in2="BackgroundImageFix" mode="normal" result="shape"/><feGaussianBlur result="effect1_foregroundBlur_2036_5" stdDeviation="80"/></filter><linearGradient id="g" gradientUnits="userSpaceOnUse" x1="626.595" x2="411.838" y1="791.737" y2="1018.39"><stop offset="0" stop-color="#3b0015"/><stop offset="1" stop-color="#ff364e"/></linearGradient><g filter="url(#a)" opacity=".7"><ellipse cx="1082.31" cy="794.051" fill="#00d1ff" rx="205.5" ry="98.5" transform="matrix(.93020761 -.3670338 .3670338 .93020761 -215.90655 452.663074)"/></g><g filter="url(#b)" opacity=".7"><ellipse cx="631.52" cy="728.129" fill="#000b69" rx="516.68" ry="189.88" transform="matrix(.98840568 -.15183616 .15183616 .98840568 -103.234267 104.329739)"/></g><g filter="url(#c)" opacity=".7"><ellipse cx="986.52" cy="651.129" fill="#5200ff" rx="516.68" ry="189.88" transform="matrix(.98840568 -.15183616 .15183616 .98840568 -87.426897 157.338814)"/></g><g filter="url(#d)" opacity=".7"><ellipse cx="1236.42" cy="245.582" fill="#00095b" rx="280.88" ry="169.904" transform="matrix(.98840568 -.15183616 .15183616 .98840568 -22.952774 190.580628)"/></g><g filter="url(#e)"><path d="m1211.7 627.229c-320.656 144.166-575.835 265.248-570.147 277.899s271.083-71.823 591.737-215.989c320.66-144.166 702.33-284.341 614.48-297.267-113.03 61.371-326.98 119.896-636.07 235.357z" fill="#62ffff"/></g><g filter="url(#f)"><ellipse cx="626.595" cy="838.593" fill="url(#g)" rx="575.667" ry="46.8557" transform="matrix(-.97209627 .23458226 -.23458226 -.97209627 1432.424708 1506.798054)"/></g></svg>