<?xml version="1.0" encoding="UTF-8" standalone="no"?><!DOCTYPE svg PUBLIC "-//W3C//DTD SVG 1.1//EN" "http://www.w3.org/Graphics/SVG/1.1/DTD/svg11.dtd"><svg width="100%" height="100%" viewBox="0 0 768 768" version="1.1" xmlns="http://www.w3.org/2000/svg" xmlns:xlink="http://www.w3.org/1999/xlink" xml:space="preserve" xmlns:serif="http://www.serif.com/" style="fill-rule:evenodd;clip-rule:evenodd;stroke-linejoin:round;stroke-miterlimit:2;"><path d="M508.5,544.5l103.5,0l-52.5,-139.5l-51,139.5Zm84,-225l144,384l-64.5,0l-36,-96l-151.5,0l-36,96l-64.5,0l144,-384l64.5,0Zm-180,162l-25.5,66l-99,-99l-160.5,159l-45,-45l163.5,-160.5c-40,-44 -72,-92.5 -96,-145.5l64.5,0c21,40 45.5,75.5 73.5,106.5c46,-51 80,-108 102,-171l-358.5,0l0,-64.5l225,0l0,-63l63,0l0,63l225,0l0,64.5l-94.5,0c-10,32 -26.5,68.25 -49.5,108.75c-23,40.5 -46,73.75 -69,99.75l-1.5,1.5l82.5,79.5Z" style="fill:#fff;fill-rule:nonzero;"/></svg>