<?xml version="1.0" encoding="UTF-8" standalone="no"?><!DOCTYPE svg PUBLIC "-//W3C//DTD SVG 1.1//EN" "http://www.w3.org/Graphics/SVG/1.1/DTD/svg11.dtd"><svg width="100%" height="100%" viewBox="0 0 1313 1313" version="1.1" xmlns="http://www.w3.org/2000/svg" xmlns:xlink="http://www.w3.org/1999/xlink" xml:space="preserve" xmlns:serif="http://www.serif.com/" style="fill-rule:evenodd;clip-rule:evenodd;stroke-linejoin:round;stroke-miterlimit:2;"><rect id="Artboard6" x="0" y="-0" width="1312.16" height="1312.16" style="fill:none;"/><clipPath id="_clip1"><rect x="0" y="-0" width="1312.16" height="1312.16"/></clipPath><g clip-path="url(#_clip1)"><g id="z"><path d="M3.704,618.934l-3.704,17.802l77.741,-0l-59.68,56.496l181.067,-0l3.64,-17.765l-139.271,-0l59.802,-56.533l-119.595,-0Z" style="fill:url(#_Radial2);"/><path d="M35.548,451.352l-8.185,16.236l75.092,20.121l-72.269,39.125l174.898,46.863l8.113,-16.217l-134.525,-36.046l72.396,-39.129l-115.52,-30.953Z" style="fill:url(#_Radial3);"/><path d="M109.681,297.721l-12.109,13.565l67.326,38.871l-79.933,19.087l156.809,90.534l12.035,-13.565l-120.612,-69.636l80.056,-19.058l-103.572,-59.798Z" style="fill:url(#_Radial4);"/><path d="M221.05,168.513l-15.207,9.969l54.971,54.971l-82.149,-2.251l128.034,128.034l15.135,-9.989l-98.479,-98.479l82.261,2.311l-84.566,-84.566Z" style="fill:url(#_Radial5);"/><path d="M362.065,72.532l-17.269,5.693l38.871,67.326l-78.767,-23.437l90.534,156.809l17.204,-5.73l-69.635,-120.612l78.86,23.523l-59.798,-103.572Z" style="fill:url(#_Radial6);"/><path d="M523.118,16.318l-18.154,1.03l20.121,75.093l-70.018,-43.025l46.864,174.898l18.102,-1.083l-36.046,-134.525l70.084,43.132l-30.953,-115.52Z" style="fill:url(#_Radial7);"/><path d="M693.232,3.704l-17.802,-3.704l-0,77.741l-56.496,-59.68l-0,181.067l17.765,3.64l-0,-139.271l56.533,59.802l-0,-119.595Z" style="fill:url(#_Radial8);"/><path d="M860.814,35.548l-16.237,-8.185l-20.121,75.092l-39.124,-72.269l-46.864,174.898l16.218,8.113l36.046,-134.525l39.128,72.396l30.954,-115.52Z" style="fill:url(#_Radial9);"/><path d="M1014.44,109.681l-13.565,-12.109l-38.871,67.326l-19.086,-79.933l-90.534,156.809l13.565,12.035l69.635,-120.612l19.059,80.056l59.797,-103.572Z" style="fill:url(#_Radial10);"/><path d="M1143.65,221.05l-9.968,-15.207l-54.972,54.971l2.252,-82.149l-128.034,128.034l9.988,15.135l98.479,-98.479l-2.311,82.261l84.566,-84.566Z" style="fill:url(#_Radial11);"/><path d="M1239.63,362.065l-5.693,-17.269l-67.327,38.871l23.437,-78.767l-156.809,90.534l5.731,17.204l120.612,-69.635l-23.524,78.86l103.573,-59.798Z" style="fill:url(#_Radial12);"/><path d="M1295.85,523.118l-1.03,-18.154l-75.092,20.121l43.024,-70.018l-174.897,46.864l1.082,18.102l134.525,-36.046l-43.132,70.084l115.52,-30.953Z" style="fill:url(#_Radial13);"/><path d="M1308.46,693.232l3.704,-17.802l-77.741,-0l59.68,-56.496l-181.067,-0l-3.64,17.765l139.271,-0l-59.802,56.533l119.595,-0Z" style="fill:url(#_Radial14);"/><path d="M1276.62,860.814l8.186,-16.237l-75.093,-20.121l72.269,-39.124l-174.897,-46.864l-8.114,16.218l134.525,36.046l-72.396,39.128l115.52,30.954Z" style="fill:url(#_Radial15);"/><path d="M1202.49,1014.44l12.109,-13.565l-67.327,-38.871l79.933,-19.086l-156.809,-90.534l-12.034,13.565l120.612,69.635l-80.056,19.059l103.572,59.797Z" style="fill:url(#_Radial16);"/><path d="M1091.12,1143.65l15.207,-9.968l-54.972,-54.972l82.149,2.252l-128.034,-128.034l-15.135,9.988l98.48,98.479l-82.262,-2.311l84.567,84.566Z" style="fill:url(#_Radial17);"/><path d="M950.1,1239.63l17.269,-5.693l-38.871,-67.327l78.767,23.437l-90.533,-156.809l-17.205,5.731l69.636,120.612l-78.86,-23.524l59.797,103.573Z" style="fill:url(#_Radial18);"/><path d="M789.048,1295.85l18.154,-1.03l-20.121,-75.092l70.017,43.024l-46.864,-174.897l-18.101,1.082l36.046,134.525l-70.085,-43.132l30.954,115.52Z" style="fill:url(#_Radial19);"/><path d="M618.934,1308.46l17.802,3.704l-0,-77.741l56.496,59.68l-0,-181.067l-17.765,-3.64l-0,139.271l-56.533,-59.802l-0,119.595Z" style="fill:url(#_Radial20);"/><path d="M451.352,1276.62l16.236,8.186l20.121,-75.093l39.125,72.269l46.863,-174.897l-16.217,-8.114l-36.046,134.525l-39.129,-72.396l-30.953,115.52Z" style="fill:url(#_Radial21);"/><path d="M297.721,1202.49l13.565,12.109l38.871,-67.327l19.087,79.933l90.534,-156.809l-13.565,-12.034l-69.636,120.612l-19.058,-80.056l-59.798,103.572Z" style="fill:url(#_Radial22);"/><path d="M168.513,1091.12l9.969,15.207l54.971,-54.972l-2.251,82.149l128.034,-128.034l-9.989,-15.135l-98.479,98.48l2.311,-82.262l-84.566,84.567Z" style="fill:url(#_Radial23);"/><path d="M72.532,950.1l5.693,17.269l67.326,-38.871l-23.437,78.767l156.809,-90.533l-5.73,-17.205l-120.612,69.636l23.523,-78.86l-103.572,59.797Z" style="fill:url(#_Radial24);"/><path d="M16.318,789.048l1.03,18.154l75.093,-20.121l-43.025,70.017l174.898,-46.864l-1.083,-18.101l-134.525,36.046l43.132,-70.085l-115.52,30.954Z" style="fill:url(#_Radial25);"/></g></g><defs><radialGradient id="_Radial2" cx="0" cy="0" r="1" gradientUnits="userSpaceOnUse" gradientTransform="matrix(639.764,0,0,639.764,656.083,656.083)"><stop offset="0" style="stop-color:#00d9ff;stop-opacity:1"/><stop offset="0.64" style="stop-color:#03c0ff;stop-opacity:1"/><stop offset="0.83" style="stop-color:#0a7eff;stop-opacity:1"/><stop offset="1" style="stop-color:#1332ff;stop-opacity:1"/></radialGradient><radialGradient id="_Radial3" cx="0" cy="0" r="1" gradientUnits="userSpaceOnUse" gradientTransform="matrix(639.764,2.84217e-14,0,639.764,656.083,656.083)"><stop offset="0" style="stop-color:#00d9ff;stop-opacity:1"/><stop offset="0.64" style="stop-color:#03c0ff;stop-opacity:1"/><stop offset="0.83" style="stop-color:#0a7eff;stop-opacity:1"/><stop offset="1" style="stop-color:#1332ff;stop-opacity:1"/></radialGradient><radialGradient id="_Radial4" cx="0" cy="0" r="1" gradientUnits="userSpaceOnUse" gradientTransform="matrix(639.764,5.68434e-14,5.68434e-14,639.764,656.083,656.083)"><stop offset="0" style="stop-color:#00d9ff;stop-opacity:1"/><stop offset="0.64" style="stop-color:#03c0ff;stop-opacity:1"/><stop offset="0.83" style="stop-color:#0a7eff;stop-opacity:1"/><stop offset="1" style="stop-color:#1332ff;stop-opacity:1"/></radialGradient><radialGradient id="_Radial5" cx="0" cy="0" r="1" gradientUnits="userSpaceOnUse" gradientTransform="matrix(639.764,5.68434e-14,-5.68434e-14,639.764,656.083,656.083)"><stop offset="0" style="stop-color:#00d9ff;stop-opacity:1"/><stop offset="0.64" style="stop-color:#03c0ff;stop-opacity:1"/><stop offset="0.83" style="stop-color:#0a7eff;stop-opacity:1"/><stop offset="1" style="stop-color:#1332ff;stop-opacity:1"/></radialGradient><radialGradient id="_Radial6" cx="0" cy="0" r="1" gradientUnits="userSpaceOnUse" gradientTransform="matrix(639.764,0,0,639.764,656.083,656.083)"><stop offset="0" style="stop-color:#00d9ff;stop-opacity:1"/><stop offset="0.64" style="stop-color:#03c0ff;stop-opacity:1"/><stop offset="0.83" style="stop-color:#0a7eff;stop-opacity:1"/><stop offset="1" style="stop-color:#1332ff;stop-opacity:1"/></radialGradient><radialGradient id="_Radial7" cx="0" cy="0" r="1" gradientUnits="userSpaceOnUse" gradientTransform="matrix(639.764,0,0,639.764,656.083,656.083)"><stop offset="0" style="stop-color:#00d9ff;stop-opacity:1"/><stop offset="0.64" style="stop-color:#03c0ff;stop-opacity:1"/><stop offset="0.83" style="stop-color:#0a7eff;stop-opacity:1"/><stop offset="1" style="stop-color:#1332ff;stop-opacity:1"/></radialGradient><radialGradient id="_Radial8" cx="0" cy="0" r="1" gradientUnits="userSpaceOnUse" gradientTransform="matrix(639.764,0,0,639.764,656.083,656.083)"><stop offset="0" style="stop-color:#00d9ff;stop-opacity:1"/><stop offset="0.64" style="stop-color:#03c0ff;stop-opacity:1"/><stop offset="0.83" style="stop-color:#0a7eff;stop-opacity:1"/><stop offset="1" style="stop-color:#1332ff;stop-opacity:1"/></radialGradient><radialGradient id="_Radial9" cx="0" cy="0" r="1" gradientUnits="userSpaceOnUse" gradientTransform="matrix(639.764,0,0,639.764,656.083,656.083)"><stop offset="0" style="stop-color:#00d9ff;stop-opacity:1"/><stop offset="0.64" style="stop-color:#03c0ff;stop-opacity:1"/><stop offset="0.83" style="stop-color:#0a7eff;stop-opacity:1"/><stop offset="1" style="stop-color:#1332ff;stop-opacity:1"/></radialGradient><radialGradient id="_Radial10" cx="0" cy="0" r="1" gradientUnits="userSpaceOnUse" gradientTransform="matrix(639.764,0,0,639.764,656.083,656.083)"><stop offset="0" style="stop-color:#00d9ff;stop-opacity:1"/><stop offset="0.64" style="stop-color:#03c0ff;stop-opacity:1"/><stop offset="0.83" style="stop-color:#0a7eff;stop-opacity:1"/><stop offset="1" style="stop-color:#1332ff;stop-opacity:1"/></radialGradient><radialGradient id="_Radial11" cx="0" cy="0" r="1" gradientUnits="userSpaceOnUse" gradientTransform="matrix(639.764,0,5.68434e-14,639.764,656.083,656.083)"><stop offset="0" style="stop-color:#00d9ff;stop-opacity:1"/><stop offset="0.64" style="stop-color:#03c0ff;stop-opacity:1"/><stop offset="0.83" style="stop-color:#0a7eff;stop-opacity:1"/><stop offset="1" style="stop-color:#1332ff;stop-opacity:1"/></radialGradient><radialGradient id="_Radial12" cx="0" cy="0" r="1" gradientUnits="userSpaceOnUse" gradientTransform="matrix(639.764,0,0,639.764,656.083,656.083)"><stop offset="0" style="stop-color:#00d9ff;stop-opacity:1"/><stop offset="0.64" style="stop-color:#03c0ff;stop-opacity:1"/><stop offset="0.83" style="stop-color:#0a7eff;stop-opacity:1"/><stop offset="1" style="stop-color:#1332ff;stop-opacity:1"/></radialGradient><radialGradient id="_Radial13" cx="0" cy="0" r="1" gradientUnits="userSpaceOnUse" gradientTransform="matrix(639.764,0,0,639.764,656.083,656.083)"><stop offset="0" style="stop-color:#00d9ff;stop-opacity:1"/><stop offset="0.64" style="stop-color:#03c0ff;stop-opacity:1"/><stop offset="0.83" style="stop-color:#0a7eff;stop-opacity:1"/><stop offset="1" style="stop-color:#1332ff;stop-opacity:1"/></radialGradient><radialGradient id="_Radial14" cx="0" cy="0" r="1" gradientUnits="userSpaceOnUse" gradientTransform="matrix(639.764,-1.26218e-29,0,639.764,656.083,656.083)"><stop offset="0" style="stop-color:#00d9ff;stop-opacity:1"/><stop offset="0.64" style="stop-color:#03c0ff;stop-opacity:1"/><stop offset="0.83" style="stop-color:#0a7eff;stop-opacity:1"/><stop offset="1" style="stop-color:#1332ff;stop-opacity:1"/></radialGradient><radialGradient id="_Radial15" cx="0" cy="0" r="1" gradientUnits="userSpaceOnUse" gradientTransform="matrix(639.764,-2.84217e-14,0,639.764,656.083,656.083)"><stop offset="0" style="stop-color:#00d9ff;stop-opacity:1"/><stop offset="0.64" style="stop-color:#03c0ff;stop-opacity:1"/><stop offset="0.83" style="stop-color:#0a7eff;stop-opacity:1"/><stop offset="1" style="stop-color:#1332ff;stop-opacity:1"/></radialGradient><radialGradient id="_Radial16" cx="0" cy="0" r="1" gradientUnits="userSpaceOnUse" gradientTransform="matrix(639.764,0,0,639.764,656.083,656.083)"><stop offset="0" style="stop-color:#00d9ff;stop-opacity:1"/><stop offset="0.64" style="stop-color:#03c0ff;stop-opacity:1"/><stop offset="0.83" style="stop-color:#0a7eff;stop-opacity:1"/><stop offset="1" style="stop-color:#1332ff;stop-opacity:1"/></radialGradient><radialGradient id="_Radial17" cx="0" cy="0" r="1" gradientUnits="userSpaceOnUse" gradientTransform="matrix(639.764,0,0,639.764,656.083,656.083)"><stop offset="0" style="stop-color:#00d9ff;stop-opacity:1"/><stop offset="0.64" style="stop-color:#03c0ff;stop-opacity:1"/><stop offset="0.83" style="stop-color:#0a7eff;stop-opacity:1"/><stop offset="1" style="stop-color:#1332ff;stop-opacity:1"/></radialGradient><radialGradient id="_Radial18" cx="0" cy="0" r="1" gradientUnits="userSpaceOnUse" gradientTransform="matrix(639.764,0,5.68434e-14,639.764,656.083,656.083)"><stop offset="0" style="stop-color:#00d9ff;stop-opacity:1"/><stop offset="0.64" style="stop-color:#03c0ff;stop-opacity:1"/><stop offset="0.83" style="stop-color:#0a7eff;stop-opacity:1"/><stop offset="1" style="stop-color:#1332ff;stop-opacity:1"/></radialGradient><radialGradient id="_Radial19" cx="0" cy="0" r="1" gradientUnits="userSpaceOnUse" gradientTransform="matrix(639.764,2.84217e-14,0,639.764,656.083,656.083)"><stop offset="0" style="stop-color:#00d9ff;stop-opacity:1"/><stop offset="0.64" style="stop-color:#03c0ff;stop-opacity:1"/><stop offset="0.83" style="stop-color:#0a7eff;stop-opacity:1"/><stop offset="1" style="stop-color:#1332ff;stop-opacity:1"/></radialGradient><radialGradient id="_Radial20" cx="0" cy="0" r="1" gradientUnits="userSpaceOnUse" gradientTransform="matrix(639.764,0,0,639.764,656.083,656.083)"><stop offset="0" style="stop-color:#00d9ff;stop-opacity:1"/><stop offset="0.64" style="stop-color:#03c0ff;stop-opacity:1"/><stop offset="0.83" style="stop-color:#0a7eff;stop-opacity:1"/><stop offset="1" style="stop-color:#1332ff;stop-opacity:1"/></radialGradient><radialGradient id="_Radial21" cx="0" cy="0" r="1" gradientUnits="userSpaceOnUse" gradientTransform="matrix(639.764,2.84217e-14,0,639.764,656.083,656.083)"><stop offset="0" style="stop-color:#00d9ff;stop-opacity:1"/><stop offset="0.64" style="stop-color:#03c0ff;stop-opacity:1"/><stop offset="0.83" style="stop-color:#0a7eff;stop-opacity:1"/><stop offset="1" style="stop-color:#1332ff;stop-opacity:1"/></radialGradient><radialGradient id="_Radial22" cx="0" cy="0" r="1" gradientUnits="userSpaceOnUse" gradientTransform="matrix(639.764,-5.68434e-14,0,639.764,656.083,656.083)"><stop offset="0" style="stop-color:#00d9ff;stop-opacity:1"/><stop offset="0.64" style="stop-color:#03c0ff;stop-opacity:1"/><stop offset="0.83" style="stop-color:#0a7eff;stop-opacity:1"/><stop offset="1" style="stop-color:#1332ff;stop-opacity:1"/></radialGradient><radialGradient id="_Radial23" cx="0" cy="0" r="1" gradientUnits="userSpaceOnUse" gradientTransform="matrix(639.764,-5.68434e-14,5.68434e-14,639.764,656.083,656.083)"><stop offset="0" style="stop-color:#00d9ff;stop-opacity:1"/><stop offset="0.64" style="stop-color:#03c0ff;stop-opacity:1"/><stop offset="0.83" style="stop-color:#0a7eff;stop-opacity:1"/><stop offset="1" style="stop-color:#1332ff;stop-opacity:1"/></radialGradient><radialGradient id="_Radial24" cx="0" cy="0" r="1" gradientUnits="userSpaceOnUse" gradientTransform="matrix(639.764,5.68434e-14,0,639.764,656.083,656.083)"><stop offset="0" style="stop-color:#00d9ff;stop-opacity:1"/><stop offset="0.64" style="stop-color:#03c0ff;stop-opacity:1"/><stop offset="0.83" style="stop-color:#0a7eff;stop-opacity:1"/><stop offset="1" style="stop-color:#1332ff;stop-opacity:1"/></radialGradient><radialGradient id="_Radial25" cx="0" cy="0" r="1" gradientUnits="userSpaceOnUse" gradientTransform="matrix(639.764,0,-2.84217e-14,639.764,656.083,656.083)"><stop offset="0" style="stop-color:#00d9ff;stop-opacity:1"/><stop offset="0.64" style="stop-color:#03c0ff;stop-opacity:1"/><stop offset="0.83" style="stop-color:#0a7eff;stop-opacity:1"/><stop offset="1" style="stop-color:#1332ff;stop-opacity:1"/></radialGradient></defs></svg>