<svg clip-rule="evenodd" fill-rule="evenodd" stroke-linejoin="round" stroke-miterlimit="2" viewBox="0 0 318 47" xmlns="http://www.w3.org/2000/svg" xmlns:xlink="http://www.w3.org/1999/xlink"><clipPath id="a"><path clip-rule="evenodd" d="m67989.8 46909.1h46.224v46.189h-46.224z"/></clipPath><g transform="matrix(6.86002 0 0 1 -466411 -46909.13215)"><path d="m67989.8 46909.1h46.224v46.189h-46.224z" fill="none"/><g clip-path="url(#a)" fill="#fff"><path d="m656.603 4096.68-18.56 86.26h389.547l-299.046 273.75h590.726l18.24-86.08h-381.296l299.656-273.93z" transform="matrix(.00824565 0 0 .0584958 67985.1491472905 46682.1697951084)"/><path d="m15948 5248.31-59.3 277.96h-146.9l59.8-277.96z" fill-opacity=".5" transform="matrix(.00561047219 0 0 .03980147825 67906.3636106705 46700.3380641262)"/><path d="m15865.2 5637.11 78.5-72.73h151.2l-27 123.51h-214.3l-51.4 241.26h-146.8l28.1-126.03z" fill-opacity=".5" transform="matrix(.00561047219 0 0 .03980147825 67906.3636106705 46700.3380641262)"/><path d="m15758.5 6131.59-59.4 277.2h-146.3l59.3-277.2z" fill-opacity=".5" transform="matrix(.00561047219 0 0 .03980147825 67906.3636106705 46700.3380641262)"/><path d="m41985.7 26468-98.89999999999 461.3h-240l99.2-461.3z" fill-opacity=".5" transform="matrix(.0033810051 0 0 .02398532535 67851.21530171 46274.383406182)"/><path d="m41487.7 27665.5 86.10000000001-398.6h240.6l-34.7 161.9-481.89999999999 441.7h-271.5l44.8-205z" fill-opacity=".5" transform="matrix(.0033810051 0 0 .02398532535 67851.21530171 46274.383406182)"/><path d="m41671 27935.9-98.1 457.9h-241.8l99.8-459.9z" fill-opacity=".5" transform="matrix(.0033810051 0 0 .02398532535 67851.21530171 46274.383406182)"/><g fill-rule="nonzero"><path d="m0-149.669h-89.823c-8.576 0-15.879 3.052-22.057 9.229-6.177 6.141-9.193 13.445-9.193 22.02v22.928c0 8.685 3.016 15.988 9.193 22.057 6.178 6.177 13.481 9.193 22.057 9.193h89.823c5.523 0 10.065 4.542 10.065 10.065v22.928c0 5.559-4.542 10.101-10.065 10.101h-89.823c-5.56 0-10.102-4.542-10.102-10.101v-1.998h-21.148v1.998c0 8.684 3.016 16.024 9.193 22.056 6.178 6.177 13.481 9.193 22.057 9.193h89.823c8.684 0 16.097-3.016 22.274-9.193s9.193-13.481 9.193-22.056v-22.928c0-8.539-3.016-15.879-9.193-22.02-6.177-6.177-13.59-9.193-22.274-9.193h-89.823c-5.56 0-10.102-4.542-10.102-10.102v-22.928c0-5.523 4.542-10.065 10.102-10.065h89.823c5.523 0 10.065 4.542 10.065 10.065v2.035h21.402v-2.035c0-8.575-3.016-15.879-9.193-22.02-6.177-6.177-13.59-9.229-22.274-9.229" transform="matrix(.0262725 0 0 .18023 68030.5 46950.1)"/><path d="m0 107.373h-99.888c-5.414 0-10.065-4.542-10.065-10.102v-32.993h109.953zm-10.065-128.521h-121.073v21.184h121.073c5.56 0 10.065 4.542 10.065 10.065v33.029h-131.138v54.141c0 8.685 3.053 16.025 9.23 22.057 6.141 6.177 13.444 9.193 22.02 9.193h121.326v-118.42c0-8.576-3.016-15.879-9.193-22.02-6.177-6.177-13.626-9.229-22.31-9.229" transform="matrix(.0262725 0 0 .18023 68026.3 46927)"/><path d="m0 107.373h-99.889c-5.414 0-10.101-4.542-10.101-10.102v-32.993h109.99zm-10.101-128.521h-121.037v21.184h121.037c5.559 0 10.101 4.542 10.101 10.065v33.029h-131.138v54.141c0 8.685 3.016 16.025 9.193 22.057 6.177 6.177 13.481 9.193 22.056 9.193h121.291v-118.42c0-8.576-3.016-15.879-9.193-22.02-6.177-6.177-13.59-9.229-22.31-9.229" transform="matrix(.0262725 0 0 .18023 68017 46927)"/><path d="m0-100.688h-100.034v-48.981h-21.148v198.65h21.148v-118.42c0-5.523 4.651-10.065 10.211-10.065h89.823c5.523 0 10.065 4.542 10.065 10.065v118.42h21.148v-118.42c0-8.575-3.016-15.879-9.193-22.02-6.177-6.177-13.481-9.229-22.02-9.229" transform="matrix(.0262725 0 0 .18023 68021.5 46941.3)"/><path d="m0-21.111h-109.954v-33.03c0-5.523 4.506-10.065 10.066-10.065h89.823c5.523 0 10.065 4.542 10.065 10.065zm-10.065-64.279h-89.823c-8.576 0-15.879 3.052-22.057 9.229-6.177 6.141-9.193 13.445-9.193 22.02v87.171c0 8.684 3.016 16.024 9.193 22.056 6.178 6.177 13.481 9.193 22.057 9.193h121.326v-21.147h-121.326c-5.56 0-10.066-4.542-10.066-10.102v-32.993h131.392v-54.178c0-8.575-3.052-15.879-9.229-22.02-6.141-6.177-13.59-9.229-22.274-9.229" transform="matrix(.0262725 0 0 .18023 68006.7 46938.5)"/><path d="m0-143.964h162.096l-162.096 136.297v28.597h185.788v-20.893h-161.988l161.988-136.189v-28.742h-185.788z" transform="matrix(.0262725 0 0 .18023 67997.7 46946.4)"/><path d="m0-198.651h-21.039v167.401c0 8.685 3.016 16.025 9.048 22.056 5.923 6.178 13.372 9.194 22.056 9.194h54.795v-21.148h-54.795c-5.414 0-10.065-4.542-10.065-10.102v-97.236h64.86v-21.184h-64.86z" transform="matrix(.0262725 0 0 .18023 68011.3 46950.1)"/><path d="m0-198.651h-21.039v167.401c0 8.685 3.016 16.025 9.084 22.056 5.923 6.178 13.336 9.194 22.02 9.194h54.795v-21.148h-54.795c-5.414 0-10.065-4.542-10.065-10.102v-97.236h64.86v-21.184h-64.86z" transform="matrix(.0262725 0 0 .18023 68008.6 46950.1)"/><path d="m0-82.229c-6.177-6.177-13.481-9.229-22.056-9.229h-99.998v-48.982h-21.184v198.651h21.184v-118.42c0-5.523 4.651-10.065 10.211-10.065h89.787c5.559 0 10.101 4.542 10.101 10.065v118.42h21.148v-118.42c0-8.576-3.016-15.879-9.193-22.02" transform="matrix(.0262725 0 0 .18023 68035.8 46939.6)"/></g></g></g></svg>