<svg clip-rule="evenodd" fill-rule="evenodd" stroke-linejoin="round" stroke-miterlimit="2" viewBox="0 0 2860 2860" xmlns="http://www.w3.org/2000/svg" xmlns:xlink="http://www.w3.org/1999/xlink"><clipPath id="a"><path clip-rule="evenodd" d="m2859.35 1429.67c0-789.588-640.087-1429.67-1429.67-1429.67h-.001c-789.588 0-1429.67 640.087-1429.67 1429.67v.001c0 789.588 640.087 1429.67 1429.67 1429.67h.001c789.588 0 1429.67-640.087 1429.67-1429.67z"/></clipPath><path d="m2859.35 1429.67c0-789.588-640.087-1429.67-1429.67-1429.67h-.001c-789.588 0-1429.67 640.087-1429.67 1429.67v.001c0 789.588 640.087 1429.67 1429.67 1429.67h.001c789.588 0 1429.67-640.087 1429.67-1429.67z" fill="#0062ff"/><g clip-path="url(#a)" fill="#fff"><path d="m576.291 953.329-47.78 229.638h1002.83l-769.849 728.773h1520.74l46.95-229.159h-981.581l771.417-729.252h-1542.72z"/><g fill-opacity=".5"><path d="m2078.5 1085.08 137.513-131.75 264.94-.001-47.432 223.739h-375.206l-90.175 437.016-76.538 366.713-104.024 502.114h-256.237l103.872-502.114h256.389l76.538-366.713h-257.046l49.097-228.295 318.309-300.709 41.192-200.787h-257.321l104.724-503.504h256.555z"/><path d="m864.283 1688 90.853-435.207h254.005l76.387-368.502h-253.358l104.723-503.504h253.008l-435.754 2102.12h-255.209l105.342-501.981 253.474 2.171 114.736-553.498-508.732 482.137h-286.537l47.211-223.738h439.851z"/></g></g></svg>