<?xml version="1.0" encoding="UTF-8" standalone="no"?>
<!DOCTYPE svg PUBLIC "-//W3C//DTD SVG 1.1//EN" "http://www.w3.org/Graphics/SVG/1.1/DTD/svg11.dtd">
<svg width="100%" height="100%" viewBox="0 0 318 47" version="1.1" xmlns="http://www.w3.org/2000/svg" xmlns:xlink="http://www.w3.org/1999/xlink" xml:space="preserve" xmlns:serif="http://www.serif.com/" style="fill-rule:evenodd;clip-rule:evenodd;stroke-linejoin:round;stroke-miterlimit:2;">
    <g transform="matrix(1,0,0,1,-67989,-46909)">
        <g id="Artboard21" transform="matrix(6.86002,0,0,1,-398422,-0.13215)">
            <rect x="67989.8" y="46909.1" width="46.224" height="46.189" style="fill:none;"/>
            <clipPath id="_clip1">
                <rect x="67989.8" y="46909.1" width="46.224" height="46.189"/>
            </clipPath>
            <g clip-path="url(#_clip1)">
                <g transform="matrix(0.00824565,0,0,0.0584958,67955,46670.5)">
                    <g transform="matrix(1,0,0,1,3656.37,199.498)">
                        <path d="M656.603,4096.68L638.043,4182.94L1027.59,4182.94L728.544,4456.69L1319.27,4456.69L1337.51,4370.61L956.214,4370.61L1255.87,4096.68L656.603,4096.68Z" style="fill:white;"/>
                    </g>
                    <g transform="matrix(0.680416,0,0,0.680416,-5898.43,510.089)">
                        <path d="M15948,5248.31L15888.7,5526.27L15741.8,5526.27L15801.6,5248.31L15948,5248.31Z" style="fill:white;fill-opacity:0.5;"/>
                    </g>
                    <g transform="matrix(0.680416,0,0,0.680416,-5898.43,510.089)">
                        <path d="M15865.2,5637.11L15943.7,5564.38L16094.9,5564.38L16067.9,5687.89L15853.6,5687.89L15802.2,5929.15L15655.4,5929.15L15683.5,5803.12L15865.2,5637.11Z" style="fill:white;fill-opacity:0.5;"/>
                    </g>
                    <g transform="matrix(0.680416,0,0,0.680416,-5898.43,510.089)">
                        <path d="M15758.5,6131.59L15699.1,6408.79L15552.8,6408.79L15612.1,6131.59L15758.5,6131.59Z" style="fill:white;fill-opacity:0.5;"/>
                    </g>
                    <g transform="matrix(0.410035,0,0,0.410035,-12586.6,-6771.71)">
                        <path d="M41985.7,26468L41886.8,26929.3L41646.8,26929.3L41746,26468L41985.7,26468Z" style="fill:white;fill-opacity:0.5;"/>
                    </g>
                    <g transform="matrix(0.410035,0,0,0.410035,-12586.6,-6771.71)">
                        <path d="M41487.7,27665.5L41573.8,27266.9L41814.4,27266.9L41779.7,27428.8L41297.8,27870.5L41026.3,27870.5L41071.1,27665.5L41487.7,27665.5Z" style="fill:white;fill-opacity:0.5;"/>
                    </g>
                    <g transform="matrix(0.410035,0,0,0.410035,-12586.6,-6771.71)">
                        <path d="M41671,27935.9L41572.9,28393.8L41331.1,28393.8L41430.9,27933.9L41671,27935.9Z" style="fill:white;fill-opacity:0.5;"/>
                    </g>
                </g>
                <g transform="matrix(0.0262725,0,0,0.18023,68030.5,46950.1)">
                    <path d="M0,-149.669L-89.823,-149.669C-98.399,-149.669 -105.702,-146.617 -111.88,-140.44C-118.057,-134.299 -121.073,-126.995 -121.073,-118.42L-121.073,-95.492C-121.073,-86.807 -118.057,-79.504 -111.88,-73.435C-105.702,-67.258 -98.399,-64.242 -89.823,-64.242L0,-64.242C5.523,-64.242 10.065,-59.7 10.065,-54.177L10.065,-31.249C10.065,-25.69 5.523,-21.148 0,-21.148L-89.823,-21.148C-95.383,-21.148 -99.925,-25.69 -99.925,-31.249L-99.925,-33.247L-121.073,-33.247L-121.073,-31.249C-121.073,-22.565 -118.057,-15.225 -111.88,-9.193C-105.702,-3.016 -98.399,0 -89.823,0L0,0C8.684,0 16.097,-3.016 22.274,-9.193C28.451,-15.37 31.467,-22.674 31.467,-31.249L31.467,-54.177C31.467,-62.716 28.451,-70.056 22.274,-76.197C16.097,-82.374 8.684,-85.39 0,-85.39L-89.823,-85.39C-95.383,-85.39 -99.925,-89.932 -99.925,-95.492L-99.925,-118.42C-99.925,-123.943 -95.383,-128.485 -89.823,-128.485L0,-128.485C5.523,-128.485 10.065,-123.943 10.065,-118.42L10.065,-116.385L31.467,-116.385L31.467,-118.42C31.467,-126.995 28.451,-134.299 22.274,-140.44C16.097,-146.617 8.684,-149.669 0,-149.669" style="fill:white;fill-rule:nonzero;"/>
                </g>
                <g transform="matrix(0.0262725,0,0,0.18023,68026.3,46927)">
                    <path d="M0,107.373L-99.888,107.373C-105.302,107.373 -109.953,102.831 -109.953,97.271L-109.953,64.278L0,64.278L0,107.373ZM-10.065,-21.148L-131.138,-21.148L-131.138,0.036L-10.065,0.036C-4.505,0.036 0,4.578 0,10.101L0,43.13L-131.138,43.13L-131.138,97.271C-131.138,105.956 -128.085,113.296 -121.908,119.328C-115.767,125.505 -108.464,128.521 -99.888,128.521L21.438,128.521L21.438,10.101C21.438,1.525 18.422,-5.778 12.245,-11.919C6.068,-18.096 -1.381,-21.148 -10.065,-21.148" style="fill:white;fill-rule:nonzero;"/>
                </g>
                <g transform="matrix(0.0262725,0,0,0.18023,68017,46927)">
                    <path d="M0,107.373L-99.889,107.373C-105.303,107.373 -109.99,102.831 -109.99,97.271L-109.99,64.278L0,64.278L0,107.373ZM-10.101,-21.148L-131.138,-21.148L-131.138,0.036L-10.101,0.036C-4.542,0.036 0,4.578 0,10.101L0,43.13L-131.138,43.13L-131.138,97.271C-131.138,105.956 -128.122,113.296 -121.945,119.328C-115.768,125.505 -108.464,128.521 -99.889,128.521L21.402,128.521L21.402,10.101C21.402,1.525 18.386,-5.778 12.209,-11.919C6.032,-18.096 -1.381,-21.148 -10.101,-21.148" style="fill:white;fill-rule:nonzero;"/>
                </g>
                <g transform="matrix(0.0262725,0,0,0.18023,68021.5,46941.3)">
                    <path d="M0,-100.688L-100.034,-100.688L-100.034,-149.669L-121.182,-149.669L-121.182,48.981L-100.034,48.981L-100.034,-69.439C-100.034,-74.962 -95.383,-79.504 -89.823,-79.504L0,-79.504C5.523,-79.504 10.065,-74.962 10.065,-69.439L10.065,48.981L31.213,48.981L31.213,-69.439C31.213,-78.014 28.197,-85.318 22.02,-91.459C15.843,-97.636 8.539,-100.688 0,-100.688" style="fill:white;fill-rule:nonzero;"/>
                </g>
                <g transform="matrix(0.0262725,0,0,0.18023,68006.7,46938.5)">
                    <path d="M0,-21.111L-109.954,-21.111L-109.954,-54.141C-109.954,-59.664 -105.448,-64.206 -99.888,-64.206L-10.065,-64.206C-4.542,-64.206 0,-59.664 0,-54.141L0,-21.111ZM-10.065,-85.39L-99.888,-85.39C-108.464,-85.39 -115.767,-82.338 -121.945,-76.161C-128.122,-70.02 -131.138,-62.716 -131.138,-54.141L-131.138,33.03C-131.138,41.714 -128.122,49.054 -121.945,55.086C-115.767,61.263 -108.464,64.279 -99.888,64.279L21.438,64.279L21.438,43.132L-99.888,43.132C-105.448,43.132 -109.954,38.59 -109.954,33.03L-109.954,0.037L21.438,0.037L21.438,-54.141C21.438,-62.716 18.386,-70.02 12.209,-76.161C6.068,-82.338 -1.381,-85.39 -10.065,-85.39" style="fill:white;fill-rule:nonzero;"/>
                </g>
                <g transform="matrix(0.0262725,0,0,0.18023,67997.7,46946.4)">
                    <path d="M0,-143.964L162.096,-143.964L0,-7.667L0,20.93L185.788,20.93L185.788,0.037L23.8,0.037L185.788,-136.152L185.788,-164.894L0,-164.894L0,-143.964Z" style="fill:white;fill-rule:nonzero;"/>
                </g>
                <g transform="matrix(0.0262725,0,0,0.18023,68011.3,46950.1)">
                    <path d="M0,-198.651L-21.039,-198.651L-21.039,-31.25C-21.039,-22.565 -18.023,-15.225 -11.991,-9.194C-6.068,-3.016 1.381,0 10.065,0L64.86,0L64.86,-21.148L10.065,-21.148C4.651,-21.148 0,-25.69 0,-31.25L0,-128.486L64.86,-128.486L64.86,-149.67L0,-149.67L0,-198.651Z" style="fill:white;fill-rule:nonzero;"/>
                </g>
                <g transform="matrix(0.0262725,0,0,0.18023,68008.6,46950.1)">
                    <path d="M0,-198.651L-21.039,-198.651L-21.039,-31.25C-21.039,-22.565 -18.023,-15.225 -11.955,-9.194C-6.032,-3.016 1.381,0 10.065,0L64.86,0L64.86,-21.148L10.065,-21.148C4.651,-21.148 0,-25.69 0,-31.25L0,-128.486L64.86,-128.486L64.86,-149.67L0,-149.67L0,-198.651Z" style="fill:white;fill-rule:nonzero;"/>
                </g>
                <g transform="matrix(0.0262725,0,0,0.18023,68035.8,46939.6)">
                    <path d="M0,-82.229C-6.177,-88.406 -13.481,-91.458 -22.056,-91.458L-122.054,-91.458L-122.054,-140.44L-143.238,-140.44L-143.238,58.211L-122.054,58.211L-122.054,-60.209C-122.054,-65.732 -117.403,-70.274 -111.843,-70.274L-22.056,-70.274C-16.497,-70.274 -11.955,-65.732 -11.955,-60.209L-11.955,58.211L9.193,58.211L9.193,-60.209C9.193,-68.785 6.177,-76.088 0,-82.229" style="fill:white;fill-rule:nonzero;"/>
                </g>
            </g>
        </g>
    </g>
</svg>
